<?xml version="1.0" encoding="UTF-8"?>
<svg width="128px" height="28px" viewBox="0 0 128 28" version="1.1" xmlns="http://www.w3.org/2000/svg" xmlns:xlink="http://www.w3.org/1999/xlink">
    <!-- Generator: Sketch 57.1 (83088) - https://sketch.com -->
    <title>LOGO1</title>
    <desc>Created with Sketch.</desc>
    <defs>
        <linearGradient x1="-11.2925%" y1="69.3813079%" x2="104.807614%" y2="24.2715227%" id="linearGradient-1">
            <stop stop-color="#FF8F14" offset="0%"></stop>
            <stop stop-color="#FFFFFF" offset="100%"></stop>
        </linearGradient>
    </defs>
    <g id="正式文件" stroke="none" stroke-width="1" fill="none" fill-rule="evenodd">
        <g id="画板" transform="translate(-319.000000, -86.000000)" fill-rule="nonzero">
            <g id="LOGO" transform="translate(319.000000, 86.000000)">
                <g id="编组">
                    <polygon id="路径" fill="url(#linearGradient-1)" points="21.7945946 12.7135135 5.32756757 21.8672432 5.32756757 27.8244324 26.6378378 15.5225946"></polygon>
                    <path d="M21.7703784,12.7135135 C20.7532973,13.3915676 19.155027,13.8758919 17.4598919,13.8758919 C14.3844324,13.8516757 11.8901622,12.3987027 11.9143784,10.6067027 C11.9143784,9.63805405 12.7377297,8.74205405 13.9001081,8.16086486 L9.49275676,5.61816216 C7.70075676,6.87740541 6.58681081,8.54832432 6.56251123,10.3645405 C6.53837838,14.3602162 11.7932973,17.6536216 18.2832432,17.7020541 C21.5282162,17.7262703 24.4583784,16.8060541 26.6136216,15.5225946 L21.7703784,12.7135135 Z" id="路径" fill="#007BEA"></path>
                    <polygon id="路径" fill="#007BEA" points="5.32756757 27.8244324 0.145297297 24.8216216 0.145297297 0.217945946 5.32756757 3.22075676"></polygon>
                </g>
                <path d="M82.7468108,6.78054054 L83.3764324,8.11243243 C82.2431135,8.59191351 81.0313341,8.87524324 79.7764013,8.944768 L79.3565405,8.96 L77.8551351,8.96 L77.8551351,11.3574054 L83.7154595,11.3574054 L83.7154595,12.8345946 L82.092973,12.8345946 L82.092973,21.2134054 L80.6157838,21.2134054 L80.6157838,12.8345946 L77.8793514,12.8345946 L77.8793514,21.2134054 L76.4021622,21.2134054 L76.4021622,7.50702703 L79.0901622,7.50702703 C80.3494054,7.50702703 81.6086486,7.24064865 82.7468108,6.78054054 Z M114.421622,6.56259459 L114.421622,8.91156757 L118.272,8.91156757 L118.272,10.3887568 L114.421622,10.3887568 L114.421622,12.3260541 L117.908757,12.3260541 L117.908757,13.6337297 L117.866603,13.6884404 L117.82983,13.7485325 L117.787676,13.8032432 L117.580492,14.0929409 C117.435195,14.2848769 117.279135,14.4732252 117.133838,14.6508108 C116.358919,15.6194595 115.511351,16.4912432 114.615351,17.2903784 C115.799255,18.1944505 117.078828,18.9837197 118.420054,19.6241705 L118.925838,19.8572973 L118.247784,21.1891892 C116.528432,20.4142703 114.905946,19.4214054 113.404541,18.259027 C112.069958,19.3137778 110.639706,20.1963243 109.130794,20.9236745 L108.561297,21.1891892 L107.931676,19.8572973 C109.457297,19.155027 110.91027,18.3074595 112.242162,17.2903784 C111.321946,16.4912432 110.474378,15.5952432 109.699459,14.6508108 C109.667171,14.5862342 109.62412,14.5324204 109.577481,14.475019 L109.50573,14.3844324 L111.443027,14.3844324 C112.048432,15.0867027 112.726486,15.7163243 113.404541,16.3217297 C114.131027,15.6961441 114.840697,15.0032913 115.491508,14.2571852 L115.874595,13.8032432 L109.312,13.8032432 L109.312,12.3260541 L112.944432,12.3260541 L112.944432,10.3887568 L109.094054,10.3887568 L109.094054,8.91156757 L112.944432,8.91156757 L112.944432,6.56259459 L114.421622,6.56259459 Z M91.6099459,6.78054054 L92.2395676,8.11243243 C91.5938018,8.37477477 90.948036,8.56984985 90.2742422,8.71167167 L89.8663784,8.79048649 L89.8663784,11.2847568 L92.1669189,11.2847568 L92.1669189,12.7861622 L89.8663784,12.7861622 L89.8663784,21.164973 L88.3891892,21.164973 L88.3891892,12.7861622 L85.5074595,12.7861622 L85.5074595,11.308973 L88.3891892,11.308973 L88.3891892,8.98421622 L86.016,8.98421622 L86.016,7.50702703 L87.9532973,7.50702703 C89.2125405,7.50702703 90.4717838,7.24064865 91.6099459,6.78054054 Z M106.624,6.58681081 L106.624,8.93578378 L108.537081,8.93578378 L108.537081,10.412973 L106.624,10.412973 L106.624,13.8274595 L108.416,13.5126486 L108.658162,14.9656216 L106.624,15.3288649 L106.624,20.5837838 L103.330595,21.164973 L103.064216,19.712 L105.146811,19.3487568 L105.146811,15.5952432 L103.064216,15.9584865 L102.797838,14.5055135 L105.146811,14.0938378 L105.146811,10.412973 L102.918919,10.412973 L102.918919,8.93578378 L105.146811,8.93578378 L105.146811,6.58681081 L106.624,6.58681081 Z M99.4317838,6.58681081 L99.4317838,15.4741622 L101.223784,15.1593514 L101.465946,16.6123243 L99.4317838,16.9755676 L99.4317838,21.1407568 L97.9545946,21.1407568 L97.9545946,17.2419459 L92.1669189,18.259027 L91.9247568,16.8060541 L97.9545946,15.7405405 L97.9545946,6.58681081 L99.4317838,6.58681081 Z M54.6075676,6.58681081 L54.6075676,8.18508108 L56.9081081,8.18508108 L56.9081081,9.66227027 L54.6075676,9.66227027 L54.6075676,11.5995676 L57.1987027,11.5995676 L57.1987027,13.0767568 L54.9708108,13.0767568 L54.9708108,14.6508108 L56.9081081,14.6508108 L56.9081081,16.128 L54.9708108,16.128 L54.9708108,19.5424865 C55.1483964,19.5747748 55.3367447,19.5963003 55.5215055,19.6070631 L55.7941622,19.6151351 L60.5163243,19.6151351 L62.163027,16.0553514 C61.5025848,14.206113 61.0622899,12.2768211 60.8785305,10.2856695 L60.8311351,9.68648649 L59.2570811,9.68648649 L59.2570811,19.0097297 L57.7798919,19.0097297 L57.7798919,8.18508108 L60.7827027,8.18508108 L60.7827027,8.03978378 C60.7827027,7.7169009 60.7934655,7.40478078 60.8078158,7.08907307 L60.8311351,6.61102703 L62.3083243,6.58681081 C62.2921802,6.92583784 62.276036,7.2541021 62.2670671,7.57877878 L62.2598919,8.064 L62.2598919,8.2092973 L64.0761081,8.2092973 L64.0761081,6.73210811 L65.5532973,6.73210811 L65.5532973,9.68648649 L62.3325405,9.68648649 C62.4384865,11.0002162 62.6371351,12.2768649 62.9609324,13.5326554 L63.1074595,14.0696216 L64.3909189,11.3331892 L65.7228108,11.9628108 L63.7855135,16.128 C64.2728649,17.3781622 64.8714595,18.5727027 65.5812973,19.7116216 L65.8923243,20.1963243 L64.6815135,21.0438919 C64.1164685,20.2165045 63.6355075,19.3554835 63.1965886,18.4608288 L62.9379459,17.92 L61.4607568,21.0923243 L55.7215135,21.0923243 L55.4124126,21.0804986 C54.0828417,21.0006486 52.883027,20.5509189 51.8711351,19.8088649 C51.8065586,20.0994595 51.7312192,20.4008168 51.6451171,20.6985866 L51.5078919,21.1407568 L50.2244324,20.2447568 C50.4423784,19.4940541 50.6118919,18.7433514 50.732973,17.9684324 C50.9197838,16.9305946 51.0176371,15.8571737 51.0417827,14.7939195 L51.0477838,14.2633514 L52.524973,14.2633514 L52.5167888,14.9152833 C52.4893213,15.9988468 52.3917838,17.0683964 52.2101622,18.1379459 C52.5201297,18.4285405 52.8455957,18.67264 53.2113574,18.882643 L53.4936216,19.0339459 L53.4936216,13.0767568 L50.5392432,13.0767568 L50.5392432,11.5995676 L53.1303784,11.5995676 L53.1303784,9.66227027 L50.8298378,9.66227027 L50.8298378,8.18508108 L53.1303784,8.18508108 L53.1303784,6.58681081 L54.6075676,6.58681081 Z M72.6244324,13.9727568 L72.6244324,14.5539459 L75.5788108,14.5539459 L75.5788108,16.0311351 L72.6244324,16.0311351 L72.6244324,21.1407568 L71.1472432,21.1407568 L71.1472432,16.0311351 L68.1686486,16.0311351 L68.1686486,14.5539459 L71.1472432,14.5539459 L71.1472432,13.9727568 L72.6244324,13.9727568 Z M38.4311351,7.0227027 L38.4311351,13.0767568 L36.5907027,13.0767568 L36.5907027,14.2875676 L38.4311351,14.2875676 L38.4311351,15.7647568 L36.5907027,15.7647568 L36.5907027,18.9128649 L38.7459459,18.5254054 L39.0123243,19.9783784 L32.7403243,21.0923243 L32.4739459,19.6393514 L33.1035676,19.5182703 L33.1035676,14.2633514 L34.5807568,14.2633514 L34.5807568,19.2518919 L35.0892973,19.155027 L35.0892973,13.0767568 L33.2488649,13.0767568 L33.2488649,7.0227027 L38.4311351,7.0227027 Z M48.6019459,14.2633514 L48.6019459,15.7405405 L42.7658378,15.7405405 L42.2815135,16.7818378 L47.8512432,16.7818378 L47.8512432,21.0923243 L44.0008649,21.0923243 L44.0008649,19.5909189 L46.3740541,19.5909189 L46.3740541,18.259027 L39.9567568,18.259027 L41.1191351,15.7405405 L39.1091892,15.7405405 L39.1091892,14.2633514 L48.6019459,14.2633514 Z M69.0646486,16.684973 C69.0646486,16.684973 70.3965405,16.9271351 70.5418378,16.9513514 C70.5418378,17.1935135 70.5176216,17.4598919 70.4691892,17.7020541 C70.2996757,18.6949189 69.8637838,19.6151351 69.2341622,20.3900541 C69.0888649,20.5595676 68.9435676,20.7290811 68.7982703,20.8743784 C68.6287568,20.7532973 67.5632432,20.0025946 67.5632432,20.0025946 C67.756973,19.8572973 67.9264865,19.6635676 68.096,19.4698378 C68.5803243,18.8886486 68.8951351,18.2105946 69.0162162,17.4841081 C69.0323604,17.3226667 69.0485045,17.1612252 69.0574735,16.9997838 L69.0646486,16.7576216 L69.0646486,16.684973 Z M74.707027,16.7091892 L74.707027,16.7576216 C74.707027,16.9997838 74.707027,17.2419459 74.7554595,17.4841081 C74.8765405,18.2105946 75.1913514,18.8886486 75.6756757,19.4698378 C75.7483243,19.5667027 75.820973,19.6393514 75.8936216,19.712 C75.8936216,19.712 74.7312432,20.5111351 74.6585946,20.5595676 C74.6343784,20.5111351 74.5859459,20.4627027 74.5375135,20.4142703 C73.8836757,19.6393514 73.472,18.7191351 73.3024865,17.7262703 C73.2540541,17.4841081 73.2298378,17.2177297 73.2298378,16.9755676 C73.2540541,16.9755676 74.707027,16.7091892 74.707027,16.7091892 Z M87.6627027,13.3673514 L87.6627027,16.3459459 L87.6546306,16.6607568 C87.6438679,16.8706306 87.6223423,17.0805045 87.5900541,17.2903784 C87.4592865,18.1403676 87.1127524,18.9707416 86.6034128,19.6755788 L86.4276757,19.9057297 L85.2168649,19.0581622 C85.2168649,19.0581622 85.2410811,19.0339459 85.2410811,19.0339459 C85.7254054,18.4527568 86.0402162,17.7747027 86.1612973,17.0482162 C86.1774414,16.8867748 86.1935856,16.7253333 86.2025546,16.5638919 L86.2097297,16.3217297 L86.1855135,16.3217297 L86.1855135,13.3673514 L87.6627027,13.3673514 Z M90.6170811,13.3673514 L92.0942703,13.3673514 C92.0700541,13.4642162 92.0700541,13.5852973 92.0700541,13.7063784 C92.0700541,14.3736697 92.2231245,14.9835596 92.5122574,15.5530559 L92.627027,15.7647568 L91.4162162,16.6123243 C90.9539066,15.8418084 90.6717177,14.951212 90.6242313,13.9951172 L90.6170811,13.7063784 L90.6170811,13.3673514 L92.0942703,13.3673514 Z M94.2252973,11.6237838 L97.0343784,13.5852973 L96.4047568,14.9656216 L93.5956757,13.0041081 L94.2252973,11.6237838 Z M70.4934054,10.1465946 L71.2925405,11.8901622 L72.6002162,11.8901622 L73.4235676,10.1465946 L75.0702703,10.1465946 L74.2469189,11.8901622 L75.8936216,11.8901622 L75.8936216,13.3673514 L68.0233514,13.3673514 L68.0233514,11.8901622 L69.6700541,11.8901622 L68.8467027,10.1465946 L70.4934054,10.1465946 Z M44.8,6.56259459 C44.7515676,6.80475676 44.6923724,7.03615616 44.6224144,7.26396797 L44.5094054,7.60389189 L48.1660541,7.60389189 L48.1660541,9.08108108 L43.8313514,9.08108108 C43.6376216,9.44432432 43.3954595,9.78335135 43.1290811,10.0981622 C42.7456577,10.5623063 42.294967,10.9928168 41.8190511,11.3616657 L41.5308108,11.5753514 L45.7928649,11.5753514 C45.2891676,11.2653838 44.816467,10.9089211 44.3747632,10.5183619 L44.0492973,10.2192432 L45.2843243,9.34745946 C46.1238198,10.1008529 47.0781181,10.7011758 48.1302114,11.1484284 L48.5292973,11.308973 L47.8996757,12.6650811 C47.6898018,12.5843604 47.4906907,12.5036396 47.2951672,12.4157437 L47.0036757,12.2776216 L47.0036757,13.0767568 L40.5621622,13.0767568 L40.5621622,12.1807568 C40.3078919,12.3260541 40.0536216,12.4441081 39.7891351,12.5451351 L39.5208649,12.6408649 L38.8912432,11.2847568 C40.0778378,10.8972973 41.1433514,10.1708108 41.9667027,9.15372973 L41.9909189,9.11740541 L42.0151351,9.08108108 L39.3271351,9.08108108 L39.3271351,7.60389189 L42.9111351,7.60389189 C43.008,7.37787387 43.0941021,7.15185586 43.1694414,6.91866266 L43.2743784,6.56259459 L44.8,6.56259459 Z M36.9781622,8.52410811 L34.7502703,8.52410811 L34.7502703,11.5995676 L36.9781622,11.5995676 L36.9781622,8.52410811 Z M94.2252973,7.99135135 L97.0343784,9.95286486 L96.4047568,11.308973 L93.5956757,9.34745946 L94.2252973,7.99135135 Z M72.6244324,6.58681081 L72.6244324,8.064 L75.5788108,8.064 L75.5788108,9.54118919 L68.3381622,9.54118919 L68.3381622,8.064 L71.1472432,8.064 L71.1472432,6.58681081 L72.6244324,6.58681081 Z" id="形状结合" fill="#131635"></path>
            </g>
        </g>
    </g>
</svg>