<?xml version="1.0" encoding="UTF-8"?>
<svg width="180px" height="39px" viewBox="0 0 180 39" version="1.1" xmlns="http://www.w3.org/2000/svg" xmlns:xlink="http://www.w3.org/1999/xlink">
    <title>logo-彩色</title>
    <g id="icon" stroke="none" stroke-width="1" fill="none" fill-rule="evenodd">
        <g transform="translate(-393.000000, -430.000000)" id="logo-彩色">
            <g transform="translate(393.000000, 430.000000)" id="编组">
                <g id="编组-4">
                    <path d="M37.5420511,5.4 L34.94649,5.4 C35.2863719,6.48960039 35.4688808,7.64087626 35.4688808,8.83090997 C35.4688808,12.2099182 33.9993378,15.2771786 31.6216216,17.5160327 C32.0114112,17.6680308 32.3957364,17.8298026 32.7749615,18 C35.806577,15.3597496 37.7027027,11.6154068 37.7027027,7.46899374 C37.7027027,6.76663457 37.6469664,6.07573423 37.5420511,5.4" id="Fill-1" fill="#16DA7B"></path>
                    <path d="M10.05351,5.4 L7.45794887,5.4 C7.35303356,6.07573423 7.2972973,6.76663457 7.2972973,7.46899374 C7.2972973,11.6154068 9.19378733,15.3597496 12.2254028,18 C12.6042636,17.8298026 12.9889531,17.6680308 13.3783784,17.5160327 C11.0006622,15.2771786 9.53111921,12.2099182 9.53111921,8.83090997 C9.53111921,7.64087626 9.71362814,6.48960039 10.05351,5.4" id="Fill-3" fill="#16DA7B"></path>
                    <path d="M41.2322554,5.4 L38.7979749,5.4 C39.0491716,6.55091639 39.1829834,7.74615207 39.1829834,8.97289599 C39.1829834,13.0634274 37.7086575,16.811523 35.2702703,19.704395 C35.613869,19.9270301 35.9506231,20.1593601 36.2812171,20.4 C39.4225443,17.0383131 41.3513514,12.5056276 41.3513514,7.52559439 C41.3513514,6.80679101 41.310626,6.09768247 41.2322554,5.4" id="Fill-5" fill="#16DA7B"></path>
                    <path d="M6.20202509,5.4 L3.76774461,5.4 C3.68971622,6.09768247 3.64864865,6.80679101 3.64864865,7.52559439 C3.64864865,12.5056276 5.57745573,17.0383131 8.71878294,20.4 C9.04937691,20.1593601 9.38647325,19.9270301 9.72972973,19.704395 C7.2913425,16.811523 5.81701658,13.0634274 5.81701658,8.97289599 C5.81701658,7.74615207 5.95082842,6.55091639 6.20202509,5.4" id="Fill-7" fill="#16DA7B"></path>
                    <path d="M2.76029298,5.4 L0.10404652,5.4 C0.035282211,6.09859944 0,6.8061863 0,7.52206925 C0,13.4164372 2.37650893,18.7881519 6.25791216,22.8 C6.59489328,22.4774897 6.94123498,22.1646582 7.2972973,21.8618511 C4.2590669,18.3674712 2.42835218,13.8730675 2.42835218,8.97595804 C2.42835218,7.75539663 2.54283935,6.56076047 2.76029298,5.4" id="Fill-9" fill="#16DA7B"></path>
                    <path d="M44.8959535,5.4 L42.239707,5.4 C42.4571606,6.56076047 42.5716478,7.75539663 42.5716478,8.97595804 C42.5716478,13.8730675 40.7409331,18.3674712 37.7027027,21.8618511 C38.058765,22.1646582 38.4051067,22.4774897 38.7420878,22.8 C42.6234911,18.7881519 45,13.4164372 45,7.52206925 C45,6.8061863 44.9643578,6.09859944 44.8959535,5.4" id="Fill-11" fill="#16DA7B"></path>
                    <path d="M13.7136975,8.83283171 C13.7136975,7.6152138 13.9658672,6.45478069 14.4212519,5.4 L11.7678348,5.4 C11.6280144,6.09249404 11.5540541,6.80800147 11.5540541,7.5405946 C11.5540541,11.4431088 13.635863,14.8724537 16.7573437,16.8 C17.2468911,16.6779593 17.7420735,16.5709121 18.2432432,16.4799046 C15.5426323,14.9767113 13.7136975,12.1125895 13.7136975,8.83283171" id="Fill-13" fill="#16DA7B"></path>
                    <path d="M33.4459459,7.5405946 C33.4459459,6.80800147 33.3719856,6.09249404 33.2321652,5.4 L30.5787481,5.4 C31.0341328,6.45478069 31.2863025,7.6152138 31.2863025,8.83283171 C31.2863025,12.1125895 29.4573677,14.9767113 26.7567568,16.4799046 C27.2579265,16.5709121 27.7538133,16.6779593 28.2437128,16.8 C30.0356675,15.6936135 31.484939,14.0913929 32.3942996,12.1893008 C33.0683958,10.7781611 33.4459459,9.20244081 33.4459459,7.5405946" id="Fill-15" fill="#16DA7B"></path>
                    <path d="M22.5,18 C10.7451341,18 1.21621622,27.4022081 1.21621622,39 L11.8579346,39 C11.8582817,33.2012753 16.6225671,28.5001712 22.5,28.5001712 C28.3774329,28.5001712 33.1420654,33.2012753 33.1420654,39 L43.7837838,39 C43.7837838,27.4022081 34.2548659,18 22.5,18" id="Fill-17" fill="#0864FF"></path>
                    <path d="M21.9977136,9.39474988 C22.275071,9.66841671 22.7251967,9.66841671 23.0025541,9.39474988 L27.1568468,5.29538275 C27.4342042,5.02206813 27.4342042,4.57793187 27.1568468,4.30426504 L23.0025541,0.205250124 C22.7251967,-0.0684167079 22.275071,-0.0684167079 21.9977136,0.205250124 L17.8434209,4.30426504 C17.5657065,4.57793187 17.5657065,5.02206813 17.8434209,5.29538275 L21.9977136,9.39474988 Z" id="Fill-19" fill="#0864FF"></path>
                </g>
                <g id="编组-2" transform="translate(56.000000, 10.000000)" fill="#005FFF">
                    <path d="M43.5816647,5.6390815 L43.5816647,7.42151265 L41.4131227,7.42151265 L40.2106079,5.6390815 L43.5816647,5.6390815 Z M48.0701689,5.6390815 L51.4412258,5.6390815 L50.2387109,7.42151265 L48.0701689,7.42151265 L48.0701689,5.6390815 Z M32.9468599,7.72901604 L32.9468599,8.17836557 C32.9468599,8.34776456 33.0771834,8.48484848 33.2381312,8.48484848 L58.4140427,8.48484848 C58.5749905,8.48484848 58.705314,8.34776456 58.705314,8.17836557 L58.705314,7.72901604 C58.705314,7.55893673 58.5749905,7.42151265 58.4140427,7.42151265 L53.7288623,7.42151265 L55.3812144,5.6390815 L56.4071291,5.6390815 C56.5680769,5.6390815 56.6984004,5.50165742 56.6984004,5.33191827 L56.6984004,4.88222858 C56.6984004,4.71282959 56.5680769,4.57574567 56.4071291,4.57574567 L48.0701689,4.57574567 L48.0701689,3.48757826 L53.1211398,3.48757826 C53.2820876,3.48757826 53.4124111,3.35015418 53.4124111,3.18041503 L53.4124111,2.7310655 C53.4124111,2.56132635 53.2820876,2.42424242 53.1211398,2.42424242 L38.5306939,2.42424242 C38.3697461,2.42424242 38.2394226,2.56132635 38.2394226,2.7310655 L38.2394226,3.18041503 C38.2394226,3.35015418 38.3697461,3.48757826 38.5306939,3.48757826 L43.5816647,3.48757826 L43.5816647,4.57574567 L35.2447046,4.57574567 C35.084097,4.57574567 34.9537735,4.71282959 34.9537735,4.88222858 L34.9537735,5.33191827 C34.9537735,5.50165742 35.084097,5.6390815 35.2447046,5.6390815 L36.2706192,5.6390815 L37.9229713,7.42151265 L33.2381312,7.42151265 C33.0771834,7.42151265 32.9468599,7.55893673 32.9468599,7.72901604 L32.9468599,7.72901604 Z" id="Fill-79"></path>
                    <path d="M59.2287566,3.29515982 L55.5254423,0.493111927 C55.1022941,0.172791269 54.587083,0 54.05721,0 L36.9962551,0 C36.4660412,0 35.95083,0.172791269 35.5276818,0.493111927 L31.8243676,3.29515982 C31.6794538,3.40462798 31.7568548,3.63636364 31.9385937,3.63636364 L34.4873714,3.63636364 C34.6384227,3.63636364 34.7874281,3.600997 34.9227946,3.53194786 L39.0622141,1.43689582 C39.3138526,1.30957594 39.5903822,1.24355822 39.8703215,1.24355822 L51.1828026,1.24355822 C51.4630829,1.24355822 51.7396125,1.30957594 51.99091,1.43689582 L56.1303295,3.53194786 C56.266037,3.600997 56.4150424,3.63636364 56.5657528,3.63636364 L59.1148714,3.63636364 C59.2962693,3.63636364 59.3736703,3.40462798 59.2287566,3.29515982" id="Fill-81"></path>
                    <path d="M59.005273,14.395079 L54.5587495,14.395079 L54.5587495,13.1767672 L55.7991632,13.1767672 C55.9686736,13.1767672 56.1062272,13.0356213 56.1062272,12.8620592 L56.1062272,12.4359202 C56.1062272,12.2620203 55.9686736,12.1212121 55.7991632,12.1212121 L49.6307885,12.1212121 C49.461278,12.1212121 49.3237245,12.2620203 49.3237245,12.4359202 L49.3237245,12.8620592 C49.3237245,13.0356213 49.461278,13.1767672 49.6307885,13.1767672 L50.8712022,13.1767672 L50.8712022,14.395079 L46.4246787,14.395079 C46.2593365,14.395079 46.1256039,14.5325105 46.1256039,14.701683 L46.1256039,15.1440301 C46.1256039,15.3132026 46.2593365,15.4506341 46.4246787,15.4506341 L50.8712022,15.4506341 L50.8712022,18.3383843 L50.1820449,18.3383843 L49.4439102,16.5703464 C49.384512,16.4548634 49.265021,16.3826021 49.134762,16.3826021 L47.4479939,16.3826021 C47.3080088,16.3826021 47.2163064,16.5278001 47.2767467,16.6530755 L47.9245684,18.3383843 L46.477477,18.3383843 C46.2829568,18.3383843 46.1256039,18.4997904 46.1256039,18.6993531 L46.1256039,19.0333083 C46.1256039,19.2325333 46.2829568,19.3939394 46.477477,19.3939394 L58.9524747,19.3939394 C59.1466475,19.3939394 59.3043478,19.2325333 59.3043478,19.0333083 L59.3043478,18.6993531 C59.3043478,18.4997904 59.1466475,18.3383843 58.9524747,18.3383843 L57.5053833,18.3383843 L58.153205,16.6530755 C58.2136452,16.5278001 58.1219429,16.3826021 57.9819578,16.3826021 L56.2951897,16.3826021 C56.1649306,16.3826021 56.0454397,16.4548634 55.9856942,16.5703464 L55.2479068,18.3383843 L54.5587495,18.3383843 L54.5587495,15.4506341 L59.005273,15.4506341 C59.1706152,15.4506341 59.3043478,15.3132026 59.3043478,15.1440301 L59.3043478,14.701683 C59.3043478,14.5325105 59.1706152,14.395079 59.005273,14.395079" id="Fill-83"></path>
                    <path d="M57.5637207,10.2262418 C57.2841582,9.89089126 56.866734,9.6969697 56.4259258,9.6969697 L49.6033448,9.6969697 C49.1621875,9.6969697 48.7447633,9.89089126 48.4652009,10.2262418 L46.1773955,12.9685602 C46.0559377,13.1146701 46.1616898,13.3333333 46.353649,13.3333333 L47.7957866,13.3333333 C47.9640127,13.3333333 48.1273526,13.2761599 48.2578849,13.1718435 L50.9313538,11.0273385 C51.1620539,10.843113 51.4482477,10.7414714 51.7431669,10.7414714 L54.2861036,10.7414714 C54.5806738,10.7414714 54.8668676,10.843113 55.0975677,11.0273385 L57.7713857,13.1718435 C57.9015689,13.2761599 58.0649088,13.3333333 58.2331349,13.3333333 L59.6752725,13.3333333 C59.8675808,13.3333333 59.9729838,13.1146701 59.851526,12.9685602 L57.5637207,10.2262418 Z" id="Fill-85"></path>
                    <path d="M45.2274952,14.395079 L40.7809717,14.395079 L40.7809717,13.1767672 L42.0213854,13.1767672 C42.1908959,13.1767672 42.3281021,13.0356213 42.3281021,12.8620592 L42.3281021,12.4359202 C42.3281021,12.2620203 42.1908959,12.1212121 42.0213854,12.1212121 L35.8530107,12.1212121 C35.6835003,12.1212121 35.5459467,12.2620203 35.5459467,12.4359202 L35.5459467,12.8620592 C35.5459467,13.0356213 35.6835003,13.1767672 35.8530107,13.1767672 L37.0934244,13.1767672 L37.0934244,14.395079 L32.6469009,14.395079 C32.4815587,14.395079 32.3478261,14.5325105 32.3478261,14.701683 L32.3478261,15.1440301 C32.3478261,15.3132026 32.4815587,15.4506341 32.6469009,15.4506341 L37.0934244,15.4506341 L37.0934244,18.3383843 L36.4042671,18.3383843 L35.6664797,16.5703464 C35.6067343,16.4548634 35.4872433,16.3826021 35.3569842,16.3826021 L33.6698688,16.3826021 C33.5302311,16.3826021 33.4385287,16.5278001 33.4989689,16.6530755 L34.1467906,18.3383843 L32.6996992,18.3383843 C32.5055264,18.3383843 32.3478261,18.4997904 32.3478261,18.6993531 L32.3478261,19.0333083 C32.3478261,19.2325333 32.5055264,19.3939394 32.6996992,19.3939394 L45.1746969,19.3939394 C45.3688697,19.3939394 45.52657,19.2325333 45.52657,19.0333083 L45.52657,18.6993531 C45.52657,18.4997904 45.3688697,18.3383843 45.1746969,18.3383843 L43.7272581,18.3383843 L44.3754273,16.6530755 C44.4358675,16.5278001 44.3441651,16.3826021 44.2045274,16.3826021 L42.5174119,16.3826021 C42.3868055,16.3826021 42.2676619,16.4548634 42.2079164,16.5703464 L41.470129,18.3383843 L40.7809717,18.3383843 L40.7809717,15.4506341 L45.2274952,15.4506341 C45.39249,15.4506341 45.52657,15.3132026 45.52657,15.1440301 L45.52657,14.701683 C45.52657,14.5325105 45.39249,14.395079 45.2274952,14.395079" id="Fill-87"></path>
                    <path d="M43.1869017,10.2262418 C42.9076884,9.89089126 42.4899155,9.6969697 42.0491075,9.6969697 L35.2265309,9.6969697 C34.7853739,9.6969697 34.3679501,9.89089126 34.0883878,10.2262418 L31.8005839,12.9685602 C31.6791261,13.1146701 31.7848782,13.3333333 31.9768373,13.3333333 L33.4189739,13.3333333 C33.5875489,13.3333333 33.7505397,13.2761599 33.8810719,13.1718435 L36.5545391,11.0273385 C36.7852391,10.843113 37.0714327,10.7414714 37.3663517,10.7414714 L39.9092867,10.7414714 C40.2038567,10.7414714 40.4900503,10.843113 40.7207503,11.0273385 L43.3945665,13.1718435 C43.5247497,13.2761599 43.6880895,13.3333333 43.8563155,13.3333333 L45.2988011,13.3333333 C45.4907603,13.3333333 45.5961633,13.1146701 45.4747055,12.9685602 L43.1869017,10.2262418 Z" id="Fill-89"></path>
                    <path d="M91.2341437,0.606060606 L64.5146486,0.606060606 C64.2838113,0.606060606 64.0966184,0.800675726 64.0966184,1.04102196 L64.0966184,1.57810468 C64.0966184,1.81810707 64.2838113,2.01306603 64.5146486,2.01306603 L70.5832469,2.01306603 L66.9239483,10.6847857 C66.2464393,12.4899613 67.5001889,14.4189203 69.368368,14.5392654 L69.368368,14.5454545 L81.3463314,14.5454545 L81.7558373,13.138793 L72.3003759,13.138793 C71.6699209,13.138793 71.2201804,12.5026835 71.4073734,11.8758577 L74.7580935,2.01306603 L91.2341437,2.01306603 C91.4649809,2.01306603 91.6521739,1.81810707 91.6521739,1.57810468 L91.6521739,1.04102196 C91.6521739,0.800675726 91.4649809,0.606060606 91.2341437,0.606060606" id="Fill-91"></path>
                    <path d="M91.2341437,17.9876337 L85.309776,17.9876337 L89.4641643,7.92428466 C90.0179008,6.43723578 88.9319088,4.84848485 87.3610563,4.84848485 L74.8787971,4.84848485 L74.4573572,6.25410337 L83.6673196,6.25410337 C84.3646049,6.25410337 84.8644681,6.95399213 84.6629544,7.6480399 L81.2587019,17.9876337 L64.5146486,17.9876337 C64.2838113,17.9876337 64.0966184,18.1821045 64.0966184,18.4226161 L64.0966184,18.958957 C64.0966184,19.199125 64.2838113,19.3939394 64.5146486,19.3939394 L91.2341437,19.3939394 C91.4649809,19.3939394 91.6521739,19.199125 91.6521739,18.958957 L91.6521739,18.4226161 C91.6521739,18.1821045 91.4649809,17.9876337 91.2341437,17.9876337" id="Fill-93"></path>
                    <path d="M121.586523,11.8339063 C121.520784,11.6429999 121.342553,11.5151515 121.142525,11.5151515 L117.703742,11.5151515 C117.490004,11.5151515 117.348333,11.7386264 117.437976,11.9340369 L120.60326,19.1160683 C120.680951,19.2854935 120.848988,19.3939394 121.033899,19.3939394 L123.762919,19.3939394 C123.925683,19.3939394 124.039934,19.2324831 123.986851,19.0772634 L121.586523,11.8339063 Z" id="Fill-95"></path>
                    <path d="M101.69355,4.97761959 L104.927145,4.97761959 L104.927145,1.50065613 L101.69355,1.50065613 L101.69355,4.97761959 Z M101.69355,10.1544159 L104.927145,10.1544159 L104.927145,6.47791619 L101.69355,6.47791619 L101.69355,10.1544159 Z M101.69355,15.0985997 L104.927145,15.0985997 L104.927145,11.5907171 L101.69355,11.5907171 L101.69355,15.0985997 Z M109.889012,0 L96.7780008,0 C96.5937671,0 96.4444444,0.163224218 96.4444444,0.364917579 L96.4444444,1.13573855 C96.4444444,1.33743192 96.5937671,1.50065613 96.7780008,1.50065613 L97.4682723,1.50065613 L97.4682723,15.1629546 L96.7780008,15.1629546 C96.5937671,15.1629546 96.4444444,15.3261788 96.4444444,15.5275126 L96.4444444,16.2983336 C96.4444444,16.4993079 96.5937671,16.6628917 96.7780008,16.6628917 L104.927145,16.6628917 L104.927145,19.6501825 C104.927145,19.8432472 105.070246,20 105.246875,20 L108.999643,20 C109.176273,20 109.319373,19.8432472 109.319373,19.6501825 L109.319373,16.6628917 L109.889012,16.6628917 C110.073245,16.6628917 110.222222,16.4993079 110.222222,16.2979741 L110.222222,15.5271531 C110.222222,15.3261788 110.073245,15.1629546 109.889012,15.1629546 L109.319373,15.1629546 L109.319373,1.50065613 L109.888666,1.50065613 C110.0729,1.50065613 110.222222,1.33743192 110.222222,1.13573855 L110.222222,0.364917579 C110.222222,0.163224218 110.073245,0 109.889012,0 L109.889012,0 Z" id="Fill-97"></path>
                    <path d="M123.699705,9.9077822 C123.865421,9.9077822 124,9.76382387 124,9.58572384 L124,8.73429306 C124,8.55619302 123.865421,8.41188272 123.699705,8.41188272 L117.617008,8.41188272 L119.100837,4.19802189 L123.699705,4.19802189 C123.865421,4.19802189 124,4.05371159 124,3.87561156 L124,3.02453275 C124,2.84643272 123.865421,2.70212242 123.699705,2.70212242 L121.727032,2.70212242 L122.449054,0.340361128 C122.499564,0.174228292 122.392662,0 122.240093,0 L119.602828,0 C119.41843,0 119.252715,0.132695083 119.18802,0.332617648 L118.420331,2.70212242 L116.008978,2.70212242 L115.226413,0.287916652 C115.170367,0.114392313 115.027485,0 114.867305,0 L112.18887,0 C112.036301,0 111.929399,0.174228292 111.980255,0.340361128 L112.702277,2.70212242 L110.729604,2.70212242 C110.563542,2.70212242 110.428963,2.84643272 110.428963,3.02453275 L110.428963,3.87561156 C110.428963,4.05371159 110.563542,4.19802189 110.729604,4.19802189 L114.528263,4.19802189 L113.361334,8.41188272 L110.729604,8.41188272 C110.563542,8.41188272 110.428963,8.55619302 110.428963,8.73429306 L110.428963,9.58572384 C110.428963,9.76382387 110.563542,9.9077822 110.729604,9.9077822 L112.946872,9.9077822 L110.230035,19.717363 C110.192672,19.8592095 110.294038,20 110.433461,20 L113.200462,20 C113.405617,20 113.587939,19.8641371 113.656785,19.6599908 L117.090454,9.9077822 L123.699705,9.9077822 Z" id="Fill-99"></path>
                    <path d="M0.396212977,7.27272727 C0.177307012,7.27272727 0,7.47344831 0,7.7201598 L0,8.64347657 C0,8.89018805 0.177307012,9.09090909 0.396212977,9.09090909 L27.1596836,9.09090909 C27.3785895,9.09090909 27.5555556,8.89018805 27.5555556,8.64347657 L27.5555556,7.7201598 C27.5555556,7.47344831 27.3785895,7.27272727 27.1596836,7.27272727 L0.396212977,7.27272727 Z" id="Fill-100"></path>
                    <path d="M12.6161596,5.65466046 C12.821482,5.91151832 13.1298135,6.06060606 13.4551972,6.06060606 L15.8351964,6.06060606 C16.0868033,6.06060606 16.2503652,5.79169722 16.1376119,5.56272875 L13.6465994,0.522323565 C13.4886056,0.202112019 13.1656579,0 12.8127819,0 L8.65274237,0 C8.42897581,0 8.3054344,0.26339982 8.44637601,0.439688327 L12.6161596,5.65466046 Z" id="Fill-101"></path>
                    <path d="M18.8011943,6.06060606 L21.3481227,6.06060606 C21.6632921,6.06060606 21.9611826,5.91565008 22.1598914,5.66567849 L26.295799,0.456559688 C26.4409428,0.273040598 26.3137692,0 26.0829214,0 L22.0012699,0 C21.6335722,0 21.2969768,0.212441424 21.1321349,0.548147077 L18.5948827,5.71939139 C18.5178182,5.87605403 18.6294407,6.06060606 18.8011943,6.06060606" id="Fill-102"></path>
                    <path d="M4.82872003,5.65466046 C5.03369437,5.91151832 5.34202589,6.06060606 5.66775761,6.06060606 L8.0477568,6.06060606 C8.29936368,6.06060606 8.46292555,5.79169722 8.35017226,5.56272875 L5.8591598,0.522323565 C5.70081799,0.202112019 5.37821831,0 5.02534228,0 L0.865302754,0 C0.641536198,0 0.517994786,0.26339982 0.658936397,0.439688327 L4.82872003,5.65466046 Z" id="Fill-103"></path>
                    <path d="M9.19229602,10.9090909 L5.12965636,10.9090909 C4.79483281,10.9090909 4.49144167,11.1133462 4.3571706,11.4297013 L0.0256471274,18.9589512 C-0.0614753276,19.1642381 0.0840704208,19.3939394 0.30068076,19.3939394 L2.88428862,19.3939394 C3.19075467,19.3939394 3.47706297,19.2374812 3.64891628,18.9754567 L9.51618656,11.5400817 C9.69282306,11.2715237 9.50662017,10.9090909 9.19229602,10.9090909" id="Fill-104"></path>
                    <path d="M22.5993511,11.4297013 C22.4650801,11.1133462 22.1616889,10.9090909 21.827207,10.9090909 L17.7642257,10.9090909 C17.4499016,10.9090909 17.2636987,11.2715237 17.4403352,11.5400817 L23.3076055,18.9754567 C23.4794588,19.2374812 23.7657671,19.3939394 24.0722331,19.3939394 L26.655841,19.3939394 C26.8724513,19.3939394 27.0179971,19.1642381 26.9308746,18.9589512 L22.5993511,11.4297013 Z" id="Fill-105"></path>
                </g>
            </g>
        </g>
    </g>
</svg>